<mxfile host="app.diagrams.net" modified="2023-04-13T09:55:32.754Z" agent="Mozilla/5.0 (Windows NT 10.0; Win64; x64) AppleWebKit/537.36 (KHTML, like Gecko) Chrome/107.0.0.0 Safari/537.36" etag="nNPYpgT-Yb6XjfyJZdqX" version="21.1.7" type="github">
  <diagram name="第 1 页" id="CS64Bk4b0ez6DxD_Rr9T">
    <mxGraphModel dx="1018" dy="530" grid="1" gridSize="10" guides="1" tooltips="1" connect="1" arrows="1" fold="1" page="1" pageScale="1" pageWidth="827" pageHeight="1169" background="none" math="0" shadow="0">
      <root>
        <mxCell id="0" />
        <mxCell id="1" parent="0" />
        <mxCell id="3w5I7WAEFjMPBjt8Ol1q-48" value="" style="shape=cube;whiteSpace=wrap;html=1;boundedLbl=1;backgroundOutline=1;darkOpacity=0.05;darkOpacity2=0.1;" vertex="1" parent="1">
          <mxGeometry x="190" y="204.17" width="148" height="320" as="geometry" />
        </mxCell>
        <mxCell id="3w5I7WAEFjMPBjt8Ol1q-7" style="edgeStyle=orthogonalEdgeStyle;rounded=0;orthogonalLoop=1;jettySize=auto;html=1;exitX=0.5;exitY=1;exitDx=0;exitDy=0;entryX=0.5;entryY=0;entryDx=0;entryDy=0;" edge="1" parent="1" source="3w5I7WAEFjMPBjt8Ol1q-1" target="3w5I7WAEFjMPBjt8Ol1q-2">
          <mxGeometry relative="1" as="geometry" />
        </mxCell>
        <mxCell id="3w5I7WAEFjMPBjt8Ol1q-1" value="打开软件" style="rounded=0;whiteSpace=wrap;html=1;" vertex="1" parent="1">
          <mxGeometry x="40" y="40" width="80" height="50" as="geometry" />
        </mxCell>
        <mxCell id="3w5I7WAEFjMPBjt8Ol1q-8" style="edgeStyle=orthogonalEdgeStyle;rounded=0;orthogonalLoop=1;jettySize=auto;html=1;exitX=0.5;exitY=1;exitDx=0;exitDy=0;entryX=0.5;entryY=0;entryDx=0;entryDy=0;" edge="1" parent="1" source="3w5I7WAEFjMPBjt8Ol1q-2" target="3w5I7WAEFjMPBjt8Ol1q-5">
          <mxGeometry relative="1" as="geometry" />
        </mxCell>
        <mxCell id="3w5I7WAEFjMPBjt8Ol1q-2" value="用户登录界面" style="rounded=0;whiteSpace=wrap;html=1;" vertex="1" parent="1">
          <mxGeometry x="40" y="120" width="80" height="50" as="geometry" />
        </mxCell>
        <mxCell id="3w5I7WAEFjMPBjt8Ol1q-9" style="edgeStyle=orthogonalEdgeStyle;rounded=0;orthogonalLoop=1;jettySize=auto;html=1;exitX=1;exitY=0.5;exitDx=0;exitDy=0;entryX=1;entryY=0.5;entryDx=0;entryDy=0;" edge="1" parent="1" source="3w5I7WAEFjMPBjt8Ol1q-5" target="3w5I7WAEFjMPBjt8Ol1q-2">
          <mxGeometry relative="1" as="geometry" />
        </mxCell>
        <mxCell id="3w5I7WAEFjMPBjt8Ol1q-10" value="否" style="edgeLabel;html=1;align=center;verticalAlign=middle;resizable=0;points=[];" vertex="1" connectable="0" parent="3w5I7WAEFjMPBjt8Ol1q-9">
          <mxGeometry x="0.0498" y="-2" relative="1" as="geometry">
            <mxPoint as="offset" />
          </mxGeometry>
        </mxCell>
        <mxCell id="3w5I7WAEFjMPBjt8Ol1q-12" style="edgeStyle=orthogonalEdgeStyle;rounded=0;orthogonalLoop=1;jettySize=auto;html=1;exitX=0.5;exitY=1;exitDx=0;exitDy=0;entryX=0.5;entryY=0;entryDx=0;entryDy=0;" edge="1" parent="1" source="3w5I7WAEFjMPBjt8Ol1q-5" target="3w5I7WAEFjMPBjt8Ol1q-11">
          <mxGeometry relative="1" as="geometry" />
        </mxCell>
        <mxCell id="3w5I7WAEFjMPBjt8Ol1q-5" value="用户名密码是否匹配" style="rhombus;whiteSpace=wrap;html=1;" vertex="1" parent="1">
          <mxGeometry x="30" y="200" width="100" height="80" as="geometry" />
        </mxCell>
        <mxCell id="3w5I7WAEFjMPBjt8Ol1q-37" style="edgeStyle=orthogonalEdgeStyle;rounded=0;orthogonalLoop=1;jettySize=auto;html=1;exitX=0.5;exitY=1;exitDx=0;exitDy=0;entryX=0.5;entryY=0;entryDx=0;entryDy=0;" edge="1" parent="1" source="3w5I7WAEFjMPBjt8Ol1q-11" target="3w5I7WAEFjMPBjt8Ol1q-36">
          <mxGeometry relative="1" as="geometry" />
        </mxCell>
        <mxCell id="3w5I7WAEFjMPBjt8Ol1q-11" value="主界面" style="rounded=0;whiteSpace=wrap;html=1;" vertex="1" parent="1">
          <mxGeometry x="40" y="320" width="80" height="50" as="geometry" />
        </mxCell>
        <mxCell id="3w5I7WAEFjMPBjt8Ol1q-51" style="edgeStyle=orthogonalEdgeStyle;rounded=0;orthogonalLoop=1;jettySize=auto;html=1;exitX=1;exitY=0.5;exitDx=0;exitDy=0;entryX=0;entryY=0.5;entryDx=0;entryDy=0;" edge="1" parent="1" source="3w5I7WAEFjMPBjt8Ol1q-14" target="3w5I7WAEFjMPBjt8Ol1q-18">
          <mxGeometry relative="1" as="geometry" />
        </mxCell>
        <mxCell id="3w5I7WAEFjMPBjt8Ol1q-14" value="爬虫采集数据" style="rounded=0;whiteSpace=wrap;html=1;" vertex="1" parent="1">
          <mxGeometry x="390" y="240" width="80" height="50" as="geometry" />
        </mxCell>
        <mxCell id="3w5I7WAEFjMPBjt8Ol1q-54" style="edgeStyle=orthogonalEdgeStyle;rounded=0;orthogonalLoop=1;jettySize=auto;html=1;exitX=0.5;exitY=1;exitDx=0;exitDy=0;entryX=0.5;entryY=0;entryDx=0;entryDy=0;entryPerimeter=0;" edge="1" parent="1" source="3w5I7WAEFjMPBjt8Ol1q-18" target="3w5I7WAEFjMPBjt8Ol1q-52">
          <mxGeometry relative="1" as="geometry" />
        </mxCell>
        <mxCell id="3w5I7WAEFjMPBjt8Ol1q-18" value="爬虫数据过滤格式化" style="rounded=0;whiteSpace=wrap;html=1;" vertex="1" parent="1">
          <mxGeometry x="510" y="240" width="80" height="50" as="geometry" />
        </mxCell>
        <mxCell id="3w5I7WAEFjMPBjt8Ol1q-59" style="edgeStyle=orthogonalEdgeStyle;rounded=0;orthogonalLoop=1;jettySize=auto;html=1;exitX=1;exitY=0.5;exitDx=0;exitDy=0;entryX=0;entryY=0.5;entryDx=0;entryDy=0;" edge="1" parent="1" source="3w5I7WAEFjMPBjt8Ol1q-22" target="3w5I7WAEFjMPBjt8Ol1q-26">
          <mxGeometry relative="1" as="geometry" />
        </mxCell>
        <mxCell id="3w5I7WAEFjMPBjt8Ol1q-22" value="分词过滤" style="rounded=0;whiteSpace=wrap;html=1;" vertex="1" parent="1">
          <mxGeometry x="630" y="350" width="80" height="50" as="geometry" />
        </mxCell>
        <mxCell id="3w5I7WAEFjMPBjt8Ol1q-26" value="构建词云" style="rounded=0;whiteSpace=wrap;html=1;" vertex="1" parent="1">
          <mxGeometry x="740" y="350" width="80" height="50" as="geometry" />
        </mxCell>
        <mxCell id="3w5I7WAEFjMPBjt8Ol1q-61" style="edgeStyle=orthogonalEdgeStyle;rounded=0;orthogonalLoop=1;jettySize=auto;html=1;exitX=1;exitY=0.5;exitDx=0;exitDy=0;entryX=0;entryY=0.5;entryDx=0;entryDy=0;" edge="1" parent="1" source="3w5I7WAEFjMPBjt8Ol1q-29" target="3w5I7WAEFjMPBjt8Ol1q-30">
          <mxGeometry relative="1" as="geometry" />
        </mxCell>
        <mxCell id="3w5I7WAEFjMPBjt8Ol1q-29" value="数据预处理" style="rounded=0;whiteSpace=wrap;html=1;" vertex="1" parent="1">
          <mxGeometry x="630" y="430" width="80" height="50" as="geometry" />
        </mxCell>
        <mxCell id="3w5I7WAEFjMPBjt8Ol1q-30" value="数据聚类" style="rounded=0;whiteSpace=wrap;html=1;" vertex="1" parent="1">
          <mxGeometry x="740" y="430" width="80" height="50" as="geometry" />
        </mxCell>
        <mxCell id="3w5I7WAEFjMPBjt8Ol1q-39" style="edgeStyle=orthogonalEdgeStyle;rounded=0;orthogonalLoop=1;jettySize=auto;html=1;exitX=0.5;exitY=1;exitDx=0;exitDy=0;entryX=0.5;entryY=0;entryDx=0;entryDy=0;" edge="1" parent="1" source="3w5I7WAEFjMPBjt8Ol1q-36" target="3w5I7WAEFjMPBjt8Ol1q-38">
          <mxGeometry relative="1" as="geometry" />
        </mxCell>
        <mxCell id="3w5I7WAEFjMPBjt8Ol1q-49" style="edgeStyle=orthogonalEdgeStyle;rounded=0;orthogonalLoop=1;jettySize=auto;html=1;exitX=1;exitY=0.5;exitDx=0;exitDy=0;entryX=0;entryY=0;entryDx=0;entryDy=97.5;entryPerimeter=0;" edge="1" parent="1" source="3w5I7WAEFjMPBjt8Ol1q-36" target="3w5I7WAEFjMPBjt8Ol1q-48">
          <mxGeometry relative="1" as="geometry" />
        </mxCell>
        <mxCell id="3w5I7WAEFjMPBjt8Ol1q-36" value="是否退出系统" style="rhombus;whiteSpace=wrap;html=1;" vertex="1" parent="1">
          <mxGeometry x="30" y="400" width="100" height="80" as="geometry" />
        </mxCell>
        <mxCell id="3w5I7WAEFjMPBjt8Ol1q-38" value="退出" style="rounded=0;whiteSpace=wrap;html=1;" vertex="1" parent="1">
          <mxGeometry x="40" y="510" width="80" height="50" as="geometry" />
        </mxCell>
        <mxCell id="3w5I7WAEFjMPBjt8Ol1q-40" value="是" style="edgeLabel;html=1;align=center;verticalAlign=middle;resizable=0;points=[];" vertex="1" connectable="0" parent="1">
          <mxGeometry x="162" y="194.16666666666674" as="geometry">
            <mxPoint x="-72" y="104" as="offset" />
          </mxGeometry>
        </mxCell>
        <mxCell id="3w5I7WAEFjMPBjt8Ol1q-41" value="否" style="edgeLabel;html=1;align=center;verticalAlign=middle;resizable=0;points=[];" vertex="1" connectable="0" parent="1">
          <mxGeometry x="172" y="204.16666666666674" as="geometry">
            <mxPoint x="-33" y="225" as="offset" />
          </mxGeometry>
        </mxCell>
        <mxCell id="3w5I7WAEFjMPBjt8Ol1q-43" value="是" style="edgeLabel;html=1;align=center;verticalAlign=middle;resizable=0;points=[];" vertex="1" connectable="0" parent="1">
          <mxGeometry x="120" y="269.9966666666667" as="geometry">
            <mxPoint x="-33" y="225" as="offset" />
          </mxGeometry>
        </mxCell>
        <mxCell id="3w5I7WAEFjMPBjt8Ol1q-50" style="edgeStyle=orthogonalEdgeStyle;rounded=0;orthogonalLoop=1;jettySize=auto;html=1;exitX=1;exitY=0.5;exitDx=0;exitDy=0;entryX=0;entryY=0.5;entryDx=0;entryDy=0;" edge="1" parent="1" source="3w5I7WAEFjMPBjt8Ol1q-45" target="3w5I7WAEFjMPBjt8Ol1q-14">
          <mxGeometry relative="1" as="geometry" />
        </mxCell>
        <mxCell id="3w5I7WAEFjMPBjt8Ol1q-45" value="数据采集模块" style="rounded=0;whiteSpace=wrap;html=1;" vertex="1" parent="1">
          <mxGeometry x="230" y="240" width="80" height="50" as="geometry" />
        </mxCell>
        <mxCell id="3w5I7WAEFjMPBjt8Ol1q-55" style="edgeStyle=orthogonalEdgeStyle;rounded=0;orthogonalLoop=1;jettySize=auto;html=1;exitX=1;exitY=0.5;exitDx=0;exitDy=0;entryX=0;entryY=0.5;entryDx=0;entryDy=0;" edge="1" parent="1" source="3w5I7WAEFjMPBjt8Ol1q-46" target="3w5I7WAEFjMPBjt8Ol1q-53">
          <mxGeometry relative="1" as="geometry" />
        </mxCell>
        <mxCell id="3w5I7WAEFjMPBjt8Ol1q-46" value="词云分析" style="rounded=0;whiteSpace=wrap;html=1;" vertex="1" parent="1">
          <mxGeometry x="230" y="350" width="80" height="50" as="geometry" />
        </mxCell>
        <mxCell id="3w5I7WAEFjMPBjt8Ol1q-63" style="edgeStyle=orthogonalEdgeStyle;rounded=0;orthogonalLoop=1;jettySize=auto;html=1;exitX=1;exitY=0.5;exitDx=0;exitDy=0;entryX=0;entryY=0.5;entryDx=0;entryDy=0;" edge="1" parent="1" source="3w5I7WAEFjMPBjt8Ol1q-47" target="3w5I7WAEFjMPBjt8Ol1q-62">
          <mxGeometry relative="1" as="geometry" />
        </mxCell>
        <mxCell id="3w5I7WAEFjMPBjt8Ol1q-47" value="评论聚类" style="rounded=0;whiteSpace=wrap;html=1;" vertex="1" parent="1">
          <mxGeometry x="230" y="430" width="80" height="50" as="geometry" />
        </mxCell>
        <mxCell id="3w5I7WAEFjMPBjt8Ol1q-58" style="edgeStyle=orthogonalEdgeStyle;rounded=0;orthogonalLoop=1;jettySize=auto;html=1;exitX=1;exitY=0.5;exitDx=0;exitDy=0;exitPerimeter=0;entryX=0;entryY=0.5;entryDx=0;entryDy=0;" edge="1" parent="1" source="3w5I7WAEFjMPBjt8Ol1q-52" target="3w5I7WAEFjMPBjt8Ol1q-22">
          <mxGeometry relative="1" as="geometry" />
        </mxCell>
        <mxCell id="3w5I7WAEFjMPBjt8Ol1q-60" style="edgeStyle=orthogonalEdgeStyle;rounded=0;orthogonalLoop=1;jettySize=auto;html=1;exitX=1;exitY=0;exitDx=0;exitDy=52.5;exitPerimeter=0;entryX=0;entryY=0.5;entryDx=0;entryDy=0;" edge="1" parent="1" source="3w5I7WAEFjMPBjt8Ol1q-52" target="3w5I7WAEFjMPBjt8Ol1q-29">
          <mxGeometry relative="1" as="geometry" />
        </mxCell>
        <mxCell id="3w5I7WAEFjMPBjt8Ol1q-52" value="数据库" style="shape=cylinder3;whiteSpace=wrap;html=1;boundedLbl=1;backgroundOutline=1;size=15;" vertex="1" parent="1">
          <mxGeometry x="520" y="335" width="60" height="80" as="geometry" />
        </mxCell>
        <mxCell id="3w5I7WAEFjMPBjt8Ol1q-57" style="edgeStyle=orthogonalEdgeStyle;rounded=0;orthogonalLoop=1;jettySize=auto;html=1;exitX=1;exitY=0.5;exitDx=0;exitDy=0;entryX=0;entryY=0.5;entryDx=0;entryDy=0;entryPerimeter=0;" edge="1" parent="1" source="3w5I7WAEFjMPBjt8Ol1q-53" target="3w5I7WAEFjMPBjt8Ol1q-52">
          <mxGeometry relative="1" as="geometry" />
        </mxCell>
        <mxCell id="3w5I7WAEFjMPBjt8Ol1q-53" value="加载数据" style="rounded=0;whiteSpace=wrap;html=1;" vertex="1" parent="1">
          <mxGeometry x="400" y="350" width="80" height="50" as="geometry" />
        </mxCell>
        <mxCell id="3w5I7WAEFjMPBjt8Ol1q-64" style="edgeStyle=orthogonalEdgeStyle;rounded=0;orthogonalLoop=1;jettySize=auto;html=1;exitX=1;exitY=0.5;exitDx=0;exitDy=0;entryX=0.5;entryY=1;entryDx=0;entryDy=0;entryPerimeter=0;" edge="1" parent="1" source="3w5I7WAEFjMPBjt8Ol1q-62" target="3w5I7WAEFjMPBjt8Ol1q-52">
          <mxGeometry relative="1" as="geometry" />
        </mxCell>
        <mxCell id="3w5I7WAEFjMPBjt8Ol1q-62" value="加载数据" style="rounded=0;whiteSpace=wrap;html=1;" vertex="1" parent="1">
          <mxGeometry x="400" y="430" width="80" height="50" as="geometry" />
        </mxCell>
      </root>
    </mxGraphModel>
  </diagram>
</mxfile>
